#!OML:ASF F:\VICON\USERDATA\INSTALL\rory3\rory3.ASF
:FULLY-SPECIFIED
:DEGREES
1
root -1.79695 17.9492 47.9434 175.913 -4.79547 -177.007
lowerback 14.2121 -0.800481 -5.66257
upperback -1.78061 -1.85392 2.61163
thorax -9.68554 -0.508119 6.48096
lowerneck -5.55662 -5.33256 -4.0276
upperneck 28.4112 -2.95184 -4.98032
head 9.93932 -1.31317 -1.1801
rclavicle 2.70936e-015 -2.35637e-014
rhumerus -28.0343 -74.7766 -18.0306
rradius 48.8944
rwrist -67.3795
rhand -14.4577 -0.563691
rfingers 7.12502
rthumb 11.6878 -30.2177
lclavicle 2.70936e-015 -2.35637e-014
lhumerus -45.9189 9.28978 75.5835
lradius 47.5998
lwrist 12.1892
lhand 170.134 66.9422
lfingers 7.12502
lthumb -163.887 37.592
rfemur -4.97269 3.05759 27.5206
rtibia 37.4296
rfoot -23.94 -20.0493
rtoes 10.0744
lfemur -7.06435 -6.67452 -19.3497
ltibia 37.7772
lfoot -21.142 6.14787
ltoes -6.91133
2
root -1.79639 17.947 47.9406 175.917 -4.73096 -177.015
lowerback 14.1947 -0.771984 -5.68597
upperback -1.56283 -1.8181 2.65972
thorax -9.43791 -0.508046 6.53116
lowerneck -6.45322 -5.22134 -4.02114
upperneck 28.6338 -2.79605 -4.93347
head 10.1965 -1.27124 -1.17501
rclavicle 2.83385e-015 -2.98425e-014
rhumerus -27.4308 -75.2474 -18.5914
rradius 49.0794
rwrist -67.3162
rhand -14.2115 -0.538681
rfingers 7.12502
rthumb 11.9251 -30.179
lclavicle 2.83385e-015 -2.98425e-014
lhumerus -45.5301 9.47447 75.7045
lradius 47.5575
lwrist 12.0771
lhand 170.307 66.8256
lfingers 7.12502
lthumb -163.721 37.489
rfemur -4.95256 3.16945 27.5325
rtibia 37.4182
rfoot -23.9513 -20.0894
rtoes 9.94923
lfemur -7.04567 -6.66858 -19.354
ltibia 37.7695
lfoot -21.1779 6.10168
ltoes -6.70943
3
root -1.79536 17.9483 47.9368 175.956 -4.78489 -177.116
lowerback 14.1459 -0.778378 -5.78928
upperback -1.41929 -1.84434 2.64383
thorax -9.24515 -0.529685 6.57097
lowerneck -6.85564 -5.13486 -3.94006
upperneck 28.6335 -2.69857 -4.95295
head 10.2722 -1.24066 -1.19612
rclavicle 1.24937e-014 1.46231e-014
rhumerus -27.044 -75.5331 -19.0305
rradius 49.3607
rwrist -67.1325
rhand -14.1824 -0.868428
rfingers 7.12502
rthumb 11.9532 -30.5072
lclavicle 1.24937e-014 1.46231e-014
lhumerus -45.1825 9.61855 75.7302
lradius 47.3486
lwrist 11.86
lhand 170.323 66.7903
lfingers 7.12502
lthumb -163.705 37.455
rfemur -4.97475 3.10834 27.4075
rtibia 37.4248
rfoot -24.0601 -19.9885
rtoes 10.041
lfemur -7.05257 -6.70058 -19.4618
ltibia 37.733
lfoot -21.1537 6.12619
ltoes -6.5501
4
root -1.79451 17.9491 47.9355 175.963 -4.83411 -177.113
lowerback 14.2024 -0.794314 -5.77691
upperback -1.37787 -1.86729 2.64799
thorax -9.22858 -0.543862 6.57447
lowerneck -7.11226 -5.0527 -3.86109
upperneck 28.7465 -2.57468 -4.95959
head 10.3628 -1.18191 -1.20591
rclavicle -2.46741e-014 1.97791e-014
rhumerus -27.0649 -75.5414 -19.0416
rradius 49.519
rwrist -67.1356
rhand -14.2166 -1.07315
rfingers 7.12502
rthumb 11.9202 -30.7138
lclavicle -2.46741e-014 1.97791e-014
lhumerus -45.0839 9.69607 75.6883
lradius 47.2035
lwrist 11.8224
lhand 170.018 66.3494
lfingers 7.12502
lthumb -163.999 36.9902
rfemur -4.9777 3.07609 27.4149
rtibia 37.415
rfoot -24.1444 -20.0211
rtoes 10.2586
lfemur -7.0658 -6.68442 -19.4536
ltibia 37.7203
lfoot -21.105 6.14588
ltoes -7.07902
5
root -1.79241 17.9503 47.9331 175.975 -4.89906 -177.099
lowerback 14.3054 -0.804009 -5.77821
upperback -1.43081 -1.88496 2.65947
thorax -9.34319 -0.544817 6.59869
lowerneck -7.0577 -4.99503 -3.84965
upperneck 28.8026 -2.4814 -4.92772
head 10.3741 -1.12632 -1.18489
rclavicle 2.7414e-014 1.38155e-014
rhumerus -27.4413 -75.2974 -18.7124
rradius 49.7891
rwrist -67.1835
rhand -14.3173 -1.36177
rfingers 7.12502
rthumb 11.8232 -31.008
lclavicle 2.7414e-014 1.38155e-014
lhumerus -45.0994 9.72292 75.6845
lradius 46.9134
lwrist 11.6811
lhand 169.176 65.2258
lfingers 7.12502
lthumb -164.81 35.8033
rfemur -4.97812 3.05781 27.4445
rtibia 37.4042
rfoot -24.1761 -20.0488
rtoes 10.3291
lfemur -7.05629 -6.77444 -19.4207
ltibia 37.6976
lfoot -21.2017 5.98578
ltoes -6.10294
6
root -1.79134 17.9493 47.9292 176.031 -4.88228 -177.063
lowerback 14.284 -0.81928 -5.77157
upperback -1.49345 -1.89893 2.71001
thorax -9.39661 -0.545988 6.65507
lowerneck -6.93274 -4.92288 -3.95434
upperneck 28.7943 -2.38602 -4.80283
head 10.3525 -1.07247 -1.10881
rclavicle -1.89828e-014 3.12589e-014
rhumerus -27.2725 -74.8604 -18.8719
rradius 50.0151
rwrist -67.3377
rhand -14.678 -1.08033
rfingers 7.12502
rthumb 11.4753 -30.7463
lclavicle -1.89828e-014 3.12589e-014
lhumerus -45.2148 9.83565 75.6615
lradius 46.7796
lwrist 11.7017
lhand 168.789 64.6546
lfingers 7.12502
lthumb -165.183 35.2043
rfemur -5.03062 3.07648 27.4833
rtibia 37.3812
rfoot -24.0604 -20.1325
rtoes 9.75022
lfemur -7.08388 -6.72607 -19.3627
ltibia 37.6972
lfoot -21.283 5.97623
ltoes -6.24559
